{
    "asset" : {
        "generator" : "Khronos glTF Blender I/O v1.1.16",
        "version" : "2.0"
    },
    "scene" : 0,
    "scenes" : [
        {
            "name" : "Scene",
            "nodes" : [
                0,
                1,
                2,
                3,
                4,
                5,
                6,
                7,
                8,
                9,
                10
            ]
        }
    ],
    "nodes" : [
        {
            "name" : "Cylinder",
            "scale" : [
                0.044450365006923676,
                0.044450365006923676,
                0.044450365006923676
            ],
            "translation" : [
                0.902087390422821,
                -0.27345743775367737,
                0.24905937910079956
            ]
        },
        {
            "name" : "Cylinder.001",
            "scale" : [
                0.044450365006923676,
                0.044450365006923676,
                0.044450365006923676
            ],
            "translation" : [
                0.902087390422821,
                -0.27345743775367737,
                0.24905937910079956
            ]
        },
        {
            "name" : "Cylinder.002",
            "scale" : [
                0.03646008297801018,
                0.06987961381673813,
                0.03646008297801018
            ],
            "translation" : [
                0.8877376914024353,
                -0.30806148052215576,
                0.24025407433509827
            ]
        },
        {
            "name" : "Cylinder.003",
            "scale" : [
                0.03646008297801018,
                0.06987961381673813,
                0.03646008297801018
            ],
            "translation" : [
                0.8877376914024353,
                -0.30806148052215576,
                0.24025407433509827
            ]
        },
        {
            "name" : "Cube.002",
            "scale" : [
                1,
                0.3799999952316284,
                0.4099999964237213
            ],
            "translation" : [
                0,
                -0.0034890954848378897,
                -0.06961304694414139
            ]
        },
        {
            "name" : "Cube.004",
            "scale" : [
                1,
                0.3799999952316284,
                0.4099999964237213
            ],
            "translation" : [
                0.014167213812470436,
                -0.0034890954848378897,
                -0.06961304694414139
            ]
        },
        {
            "name" : "Cube.005",
            "scale" : [
                0.18508079648017883,
                0.18508079648017883,
                0.18508079648017883
            ],
            "translation" : [
                0.46283599734306335,
                0.26308098435401917,
                -0.07625528424978256
            ]
        },
        {
            "name" : "Cube.007",
            "scale" : [
                0.18508079648017883,
                0.18508079648017883,
                0.18508079648017883
            ],
            "translation" : [
                0.46283599734306335,
                0.26308098435401917,
                -0.07625528424978256
            ]
        },
        {
            "mesh" : 0,
            "name" : "Cube",
            "scale" : [
                0.24869433045387268,
                0.24869433045387268,
                0.24869433045387268
            ],
            "translation" : [
                0.010195603594183922,
                0.8194742798805237,
                0.01854473166167736
            ]
        },
        {
            "mesh" : 1,
            "name" : "Cube.000",
            "rotation" : [
                0.04698886349797249,
                0.38679444789886475,
                0.11344114691019058,
                0.9139547348022461
            ],
            "scale" : [
                0.021595973521471024,
                0.22344492375850677,
                0.02186189405620098
            ],
            "translation" : [
                0.01075035147368908,
                0.36298102140426636,
                0.028298426419496536
            ]
        },
        {
            "mesh" : 2,
            "name" : "Cube.003",
            "scale" : [
                0.17301934957504272,
                0.03409693390130997,
                0.17301934957504272
            ],
            "translation" : [
                0.010195603594183922,
                0.6312426924705505,
                0.029798980802297592
            ]
        }
    ],
    "materials" : [
        {
            "doubleSided" : true,
            "emissiveFactor" : [
                0,
                0,
                0
            ],
            "name" : "Material.006",
            "pbrMetallicRoughness" : {
                "baseColorFactor" : [
                    0.2917708158493042,
                    0.001517581520602107,
                    0,
                    1
                ],
                "metallicFactor" : 0,
                "roughnessFactor" : 0.8590909242630005
            }
        },
        {
            "doubleSided" : true,
            "emissiveFactor" : [
                0,
                0,
                0
            ],
            "name" : "Material.005",
            "pbrMetallicRoughness" : {
                "baseColorFactor" : [
                    0,
                    0,
                    0,
                    1
                ],
                "metallicFactor" : 0.1090909093618393,
                "roughnessFactor" : 0.7545454502105713
            }
        },
        {
            "doubleSided" : true,
            "emissiveFactor" : [
                0,
                0,
                0
            ],
            "name" : "Material.007",
            "pbrMetallicRoughness" : {
                "baseColorFactor" : [
                    0.2917708158493042,
                    0.001517581520602107,
                    0,
                    1
                ],
                "metallicFactor" : 0,
                "roughnessFactor" : 0.5727272629737854
            }
        }
    ],
    "meshes" : [
        {
            "name" : "Cube.009",
            "primitives" : [
                {
                    "attributes" : {
                        "POSITION" : 0,
                        "NORMAL" : 1,
                        "TEXCOORD_0" : 2
                    },
                    "indices" : 3,
                    "material" : 0
                }
            ]
        },
        {
            "name" : "Cube.007",
            "primitives" : [
                {
                    "attributes" : {
                        "POSITION" : 4,
                        "NORMAL" : 5,
                        "TEXCOORD_0" : 6
                    },
                    "indices" : 7,
                    "material" : 1
                }
            ]
        },
        {
            "name" : "Cube.005",
            "primitives" : [
                {
                    "attributes" : {
                        "POSITION" : 8,
                        "NORMAL" : 9,
                        "TEXCOORD_0" : 10,
                        "COLOR_0" : 11
                    },
                    "indices" : 12,
                    "material" : 2
                }
            ]
        }
    ],
    "accessors" : [
        {
            "bufferView" : 0,
            "componentType" : 5126,
            "count" : 16308,
            "max" : [
                0.9476040601730347,
                1.000379204750061,
                1
            ],
            "min" : [
                -0.9476306438446045,
                -1,
                -1.2608145475387573
            ],
            "type" : "VEC3"
        },
        {
            "bufferView" : 1,
            "componentType" : 5126,
            "count" : 16308,
            "type" : "VEC3"
        },
        {
            "bufferView" : 2,
            "componentType" : 5126,
            "count" : 16308,
            "type" : "VEC2"
        },
        {
            "bufferView" : 3,
            "componentType" : 5123,
            "count" : 95232,
            "type" : "SCALAR"
        },
        {
            "bufferView" : 4,
            "componentType" : 5126,
            "count" : 327,
            "max" : [
                9.538000106811523,
                1.0443389415740967,
                14.773512840270996
            ],
            "min" : [
                -19.2513427734375,
                -1.9086514711380005,
                -14.846174240112305
            ],
            "type" : "VEC3"
        },
        {
            "bufferView" : 5,
            "componentType" : 5126,
            "count" : 327,
            "type" : "VEC3"
        },
        {
            "bufferView" : 6,
            "componentType" : 5126,
            "count" : 327,
            "type" : "VEC2"
        },
        {
            "bufferView" : 7,
            "componentType" : 5123,
            "count" : 984,
            "type" : "SCALAR"
        },
        {
            "bufferView" : 8,
            "componentType" : 5126,
            "count" : 6132,
            "max" : [
                1.2851619720458984,
                1.1937631368637085,
                1.4811477661132812
            ],
            "min" : [
                -1.2851619720458984,
                -1.2583410739898682,
                -1.3164315223693848
            ],
            "type" : "VEC3"
        },
        {
            "bufferView" : 9,
            "componentType" : 5126,
            "count" : 6132,
            "type" : "VEC3"
        },
        {
            "bufferView" : 10,
            "componentType" : 5126,
            "count" : 6132,
            "type" : "VEC2"
        },
        {
            "bufferView" : 11,
            "componentType" : 5126,
            "count" : 6132,
            "type" : "VEC4"
        },
        {
            "bufferView" : 12,
            "componentType" : 5123,
            "count" : 33792,
            "type" : "SCALAR"
        }
    ],
    "bufferViews" : [
        {
            "buffer" : 0,
            "byteLength" : 195696,
            "byteOffset" : 0
        },
        {
            "buffer" : 0,
            "byteLength" : 195696,
            "byteOffset" : 195696
        },
        {
            "buffer" : 0,
            "byteLength" : 130464,
            "byteOffset" : 391392
        },
        {
            "buffer" : 0,
            "byteLength" : 190464,
            "byteOffset" : 521856
        },
        {
            "buffer" : 0,
            "byteLength" : 3924,
            "byteOffset" : 712320
        },
        {
            "buffer" : 0,
            "byteLength" : 3924,
            "byteOffset" : 716244
        },
        {
            "buffer" : 0,
            "byteLength" : 2616,
            "byteOffset" : 720168
        },
        {
            "buffer" : 0,
            "byteLength" : 1968,
            "byteOffset" : 722784
        },
        {
            "buffer" : 0,
            "byteLength" : 73584,
            "byteOffset" : 724752
        },
        {
            "buffer" : 0,
            "byteLength" : 73584,
            "byteOffset" : 798336
        },
        {
            "buffer" : 0,
            "byteLength" : 49056,
            "byteOffset" : 871920
        },
        {
            "buffer" : 0,
            "byteLength" : 98112,
            "byteOffset" : 920976
        },
        {
            "buffer" : 0,
            "byteLength" : 67584,
            "byteOffset" : 1019088
        }
    ],
    "buffers" : [
        {
            "byteLength" : 1086672,
            "uri" : "data:application/octet-stream;base64,"
        }
    ]
}
