{
    "asset" : {
        "generator" : "Khronos glTF Blender I/O v1.1.16",
        "version" : "2.0"
    },
    "scene" : 0,
    "scenes" : [
        {
            "name" : "Scene",
            "nodes" : [
                0,
                1,
                2,
                3,
                4,
                5,
                6,
                7,
                8,
                9,
                10
            ]
        }
    ],
    "nodes" : [
        {
            "name" : "Cylinder",
            "scale" : [
                0.044450365006923676,
                0.044450365006923676,
                0.044450365006923676
            ],
            "translation" : [
                0.902087390422821,
                -0.26996833086013794,
                0.24905937910079956
            ]
        },
        {
            "name" : "Cylinder.001",
            "scale" : [
                0.044450365006923676,
                0.044450365006923676,
                0.044450365006923676
            ],
            "translation" : [
                0.902087390422821,
                -0.26996833086013794,
                0.24905937910079956
            ]
        },
        {
            "name" : "Cylinder.002",
            "scale" : [
                0.03646008297801018,
                0.06987961381673813,
                0.03646008297801018
            ],
            "translation" : [
                0.8877376914024353,
                -0.30457237362861633,
                0.24025407433509827
            ]
        },
        {
            "name" : "Cylinder.003",
            "scale" : [
                0.03646008297801018,
                0.06987961381673813,
                0.03646008297801018
            ],
            "translation" : [
                0.8877376914024353,
                -0.30457237362861633,
                0.24025407433509827
            ]
        },
        {
            "mesh" : 0,
            "name" : "Cylinder.004",
            "rotation" : [
                0,
                -0.9999966025352478,
                0,
                -0.0026071479078382254
            ],
            "scale" : [
                0.03646008297801018,
                0.06987961381673813,
                0.03646008297801018
            ],
            "translation" : [
                -2.6927905082702637,
                0.07802894711494446,
                0.3025205731391907
            ]
        },
        {
            "mesh" : 1,
            "name" : "Cylinder.006",
            "rotation" : [
                0,
                -0.9999966025352478,
                0,
                -0.0026071479078382254
            ],
            "scale" : [
                0.03646008297801018,
                0.06987961381673813,
                0.03646008297801018
            ],
            "translation" : [
                -2.693251609802246,
                0.07513326406478882,
                -0.31629592180252075
            ]
        },
        {
            "name" : "Cube.002",
            "scale" : [
                1,
                0.3799999952316284,
                0.4099999964237213
            ],
            "translation" : [
                0,
                0,
                -0.06961304694414139
            ]
        },
        {
            "name" : "Cube.004",
            "scale" : [
                1,
                0.3799999952316284,
                0.4099999964237213
            ],
            "translation" : [
                0.014167213812470436,
                0,
                -0.06961304694414139
            ]
        },
        {
            "name" : "Cube.005",
            "scale" : [
                0.18508079648017883,
                0.18508079648017883,
                0.18508079648017883
            ],
            "translation" : [
                0.46283599734306335,
                0.2665700912475586,
                -0.07625528424978256
            ]
        },
        {
            "name" : "Cube.007",
            "scale" : [
                0.18508079648017883,
                0.18508079648017883,
                0.18508079648017883
            ],
            "translation" : [
                0.46283599734306335,
                0.2665700912475586,
                -0.07625528424978256
            ]
        },
        {
            "mesh" : 2,
            "name" : "Cube.009",
            "translation" : [
                0.46283599734306335,
                0.6491714119911194,
                -0.005200741812586784
            ]
        }
    ],
    "materials" : [
        {
            "doubleSided" : true,
            "emissiveFactor" : [
                0,
                0,
                0
            ],
            "name" : "Material.002",
            "pbrMetallicRoughness" : {
                "baseColorFactor" : [
                    0.10461652278900146,
                    0.028426021337509155,
                    0.005181520711630583,
                    1
                ],
                "metallicFactor" : 0,
                "roughnessFactor" : 0.8090909123420715
            }
        },
        {
            "doubleSided" : true,
            "emissiveFactor" : [
                0,
                0,
                0
            ],
            "name" : "Material.001",
            "pbrMetallicRoughness" : {
                "baseColorFactor" : [
                    0.10461652278900146,
                    0.028426021337509155,
                    0.005181520711630583,
                    1
                ],
                "metallicFactor" : 0,
                "roughnessFactor" : 0.5
            }
        },
        {
            "doubleSided" : true,
            "emissiveFactor" : [
                0,
                0,
                0
            ],
            "name" : "Material",
            "pbrMetallicRoughness" : {
                "baseColorFactor" : [
                    0.8135912418365479,
                    0.9691078662872314,
                    1,
                    1
                ],
                "metallicFactor" : 0,
                "roughnessFactor" : 0.913636326789856
            }
        }
    ],
    "meshes" : [
        {
            "name" : "Cylinder.005",
            "primitives" : [
                {
                    "attributes" : {
                        "POSITION" : 0,
                        "NORMAL" : 1,
                        "TEXCOORD_0" : 2
                    },
                    "indices" : 3,
                    "material" : 0
                }
            ]
        },
        {
            "name" : "Cylinder.007",
            "primitives" : [
                {
                    "attributes" : {
                        "POSITION" : 4,
                        "NORMAL" : 5,
                        "TEXCOORD_0" : 6
                    },
                    "indices" : 3,
                    "material" : 1
                }
            ]
        },
        {
            "name" : "Cube.010",
            "primitives" : [
                {
                    "attributes" : {
                        "POSITION" : 7,
                        "NORMAL" : 8,
                        "TEXCOORD_0" : 9
                    },
                    "indices" : 10,
                    "material" : 2
                }
            ]
        }
    ],
    "accessors" : [
        {
            "bufferView" : 0,
            "componentType" : 5126,
            "count" : 554,
            "max" : [
                -47.81266784667969,
                1,
                1.271020770072937
            ],
            "min" : [
                -99.56825256347656,
                -0.9999991059303284,
                -1
            ],
            "type" : "VEC3"
        },
        {
            "bufferView" : 1,
            "componentType" : 5126,
            "count" : 554,
            "type" : "VEC3"
        },
        {
            "bufferView" : 2,
            "componentType" : 5126,
            "count" : 554,
            "type" : "VEC2"
        },
        {
            "bufferView" : 3,
            "componentType" : 5123,
            "count" : 1512,
            "type" : "SCALAR"
        },
        {
            "bufferView" : 4,
            "componentType" : 5126,
            "count" : 554,
            "max" : [
                -47.81266784667969,
                1,
                1.271020770072937
            ],
            "min" : [
                -99.56825256347656,
                -0.9999991059303284,
                -1
            ],
            "type" : "VEC3"
        },
        {
            "bufferView" : 5,
            "componentType" : 5126,
            "count" : 554,
            "type" : "VEC3"
        },
        {
            "bufferView" : 6,
            "componentType" : 5126,
            "count" : 554,
            "type" : "VEC2"
        },
        {
            "bufferView" : 7,
            "componentType" : 5126,
            "count" : 10223,
            "max" : [
                0.5561510920524597,
                0.21573391556739807,
                0.4244152307510376
            ],
            "min" : [
                -1.4874870777130127,
                -0.5201268792152405,
                -0.4051736891269684
            ],
            "type" : "VEC3"
        },
        {
            "bufferView" : 8,
            "componentType" : 5126,
            "count" : 10223,
            "type" : "VEC3"
        },
        {
            "bufferView" : 9,
            "componentType" : 5126,
            "count" : 10223,
            "type" : "VEC2"
        },
        {
            "bufferView" : 10,
            "componentType" : 5123,
            "count" : 46896,
            "type" : "SCALAR"
        }
    ],
    "bufferViews" : [
        {
            "buffer" : 0,
            "byteLength" : 6648,
            "byteOffset" : 0
        },
        {
            "buffer" : 0,
            "byteLength" : 6648,
            "byteOffset" : 6648
        },
        {
            "buffer" : 0,
            "byteLength" : 4432,
            "byteOffset" : 13296
        },
        {
            "buffer" : 0,
            "byteLength" : 3024,
            "byteOffset" : 17728
        },
        {
            "buffer" : 0,
            "byteLength" : 6648,
            "byteOffset" : 20752
        },
        {
            "buffer" : 0,
            "byteLength" : 6648,
            "byteOffset" : 27400
        },
        {
            "buffer" : 0,
            "byteLength" : 4432,
            "byteOffset" : 34048
        },
        {
            "buffer" : 0,
            "byteLength" : 122676,
            "byteOffset" : 38480
        },
        {
            "buffer" : 0,
            "byteLength" : 122676,
            "byteOffset" : 161156
        },
        {
            "buffer" : 0,
            "byteLength" : 81784,
            "byteOffset" : 283832
        },
        {
            "buffer" : 0,
            "byteLength" : 93792,
            "byteOffset" : 365616
        }
    ],
    "buffers" : [
        {
            "byteLength" : 459408,
            "uri" : "data:application/octet-stream;base64,"
        }
    ]
}
