{
    "asset" : {
        "generator" : "Khronos glTF Blender I/O v1.1.16",
        "version" : "2.0"
    },
    "scene" : 0,
    "scenes" : [
        {
            "name" : "Scene",
            "nodes" : [
                0,
                1,
                2,
                3,
                4,
                5,
                6,
                7,
                8,
                9,
                10,
                11
            ]
        }
    ],
    "nodes" : [
        {
            "name" : "Cylinder",
            "scale" : [
                0.044450365006923676,
                0.044450365006923676,
                0.044450365006923676
            ],
            "translation" : [
                0.902087390422821,
                -0.26996833086013794,
                0.31867241859436035
            ]
        },
        {
            "name" : "Cylinder.001",
            "scale" : [
                0.044450365006923676,
                0.044450365006923676,
                0.044450365006923676
            ],
            "translation" : [
                0.902087390422821,
                -0.26996833086013794,
                0.31867241859436035
            ]
        },
        {
            "name" : "Cylinder.002",
            "scale" : [
                0.03646008297801018,
                0.06987961381673813,
                0.03646008297801018
            ],
            "translation" : [
                0.8877376914024353,
                -0.30457237362861633,
                0.30986711382865906
            ]
        },
        {
            "name" : "Cylinder.003",
            "scale" : [
                0.03646008297801018,
                0.06987961381673813,
                0.03646008297801018
            ],
            "translation" : [
                0.8877376914024353,
                -0.30457237362861633,
                0.30986711382865906
            ]
        },
        {
            "name" : "Cube.002",
            "scale" : [
                1,
                0.3799999952316284,
                0.4099999964237213
            ]
        },
        {
            "name" : "Cube.004",
            "scale" : [
                1,
                0.3799999952316284,
                0.4099999964237213
            ],
            "translation" : [
                0.014167213812470436,
                0,
                0
            ]
        },
        {
            "name" : "Cube.005",
            "scale" : [
                0.18508079648017883,
                0.18508079648017883,
                0.18508079648017883
            ],
            "translation" : [
                0.46283599734306335,
                0.2665700912475586,
                -0.0066422345116734505
            ]
        },
        {
            "name" : "Cube.007",
            "scale" : [
                0.18508079648017883,
                0.18508079648017883,
                0.18508079648017883
            ],
            "translation" : [
                0.46283599734306335,
                0.2665700912475586,
                -0.0066422345116734505
            ]
        },
        {
            "mesh" : 0,
            "name" : "Cube.001",
            "scale" : [
                0.30100470781326294,
                -0.04683561995625496,
                0.3732226490974426
            ],
            "translation" : [
                -0.6132799386978149,
                0.4189395010471344,
                0.11530731618404388
            ]
        },
        {
            "mesh" : 1,
            "name" : "Cube.000",
            "rotation" : [
                0,
                0.7071067690849304,
                0,
                0.7071067690849304
            ],
            "scale" : [
                0.10088438540697098,
                0.2344435602426529,
                0.9206491112709045
            ],
            "translation" : [
                0.008496524766087532,
                0.49400338530540466,
                -0.35997435450553894
            ]
        },
        {
            "mesh" : 2,
            "name" : "Cube.008",
            "rotation" : [
                -0.04603077471256256,
                0,
                0,
                0.9989400506019592
            ],
            "scale" : [
                0.29190245270729065,
                0.19583386182785034,
                0.07882539927959442
            ],
            "translation" : [
                0.6266282200813293,
                0.647040605545044,
                -0.1762675940990448
            ]
        },
        {
            "mesh" : 3,
            "name" : "Cylinder.005",
            "rotation" : [
                0,
                0,
                -0.08715573698282242,
                0.9961947202682495
            ],
            "scale" : [
                0.020767465233802795,
                0.10249245166778564,
                0.01959417574107647
            ],
            "translation" : [
                -1.0355175733566284,
                0.11197170615196228,
                0.4081847369670868
            ]
        }
    ],
    "materials" : [
        {
            "doubleSided" : true,
            "emissiveFactor" : [
                0,
                0,
                0
            ],
            "name" : "Material.007",
            "pbrMetallicRoughness" : {
                "baseColorFactor" : [
                    0.17626264691352844,
                    0.17626264691352844,
                    0.17626264691352844,
                    1
                ],
                "metallicFactor" : 0,
                "roughnessFactor" : 0.5909091234207153
            }
        },
        {
            "doubleSided" : true,
            "emissiveFactor" : [
                0,
                0,
                0
            ],
            "name" : "Material.006",
            "pbrMetallicRoughness" : {
                "baseColorFactor" : [
                    0.20152117311954498,
                    0.20152117311954498,
                    0.20152117311954498,
                    1
                ],
                "metallicFactor" : 0,
                "roughnessFactor" : 0.7318181991577148
            }
        },
        {
            "doubleSided" : true,
            "emissiveFactor" : [
                0,
                0,
                0
            ],
            "name" : "Material.005",
            "pbrMetallicRoughness" : {
                "baseColorFactor" : [
                    0.04037807509303093,
                    0.04037807509303093,
                    0.04037807509303093,
                    1
                ],
                "metallicFactor" : 0,
                "roughnessFactor" : 0.6954545378684998
            }
        },
        {
            "doubleSided" : true,
            "emissiveFactor" : [
                0,
                0,
                0
            ],
            "name" : "Material.004",
            "pbrMetallicRoughness" : {
                "baseColorFactor" : [
                    0.04037807509303093,
                    0.04037807509303093,
                    0.04037807509303093,
                    1
                ],
                "metallicFactor" : 0,
                "roughnessFactor" : 0.48636364936828613
            }
        }
    ],
    "meshes" : [
        {
            "name" : "Cube.009",
            "primitives" : [
                {
                    "attributes" : {
                        "POSITION" : 0,
                        "NORMAL" : 1
                    },
                    "indices" : 2,
                    "material" : 0
                }
            ]
        },
        {
            "name" : "Cube.005",
            "primitives" : [
                {
                    "attributes" : {
                        "POSITION" : 3,
                        "NORMAL" : 4
                    },
                    "indices" : 5,
                    "material" : 1
                }
            ]
        },
        {
            "name" : "Cube.013",
            "primitives" : [
                {
                    "attributes" : {
                        "POSITION" : 6,
                        "NORMAL" : 7
                    },
                    "indices" : 8,
                    "material" : 2
                }
            ]
        },
        {
            "name" : "Cylinder.002",
            "primitives" : [
                {
                    "attributes" : {
                        "POSITION" : 9,
                        "NORMAL" : 10
                    },
                    "indices" : 11,
                    "material" : 3
                }
            ]
        }
    ],
    "accessors" : [
        {
            "bufferView" : 0,
            "componentType" : 5126,
            "count" : 168,
            "max" : [
                5.108520984649658,
                1,
                1
            ],
            "min" : [
                -1,
                -1.0464162826538086,
                -1.00191330909729
            ],
            "type" : "VEC3"
        },
        {
            "bufferView" : 1,
            "componentType" : 5126,
            "count" : 168,
            "type" : "VEC3"
        },
        {
            "bufferView" : 2,
            "componentType" : 5123,
            "count" : 972,
            "type" : "SCALAR"
        },
        {
            "bufferView" : 3,
            "componentType" : 5126,
            "count" : 380,
            "max" : [
                1.0265119075775146,
                1,
                1.212960958480835
            ],
            "min" : [
                -8.318242073059082,
                -1.2723337411880493,
                -1.2171087265014648
            ],
            "type" : "VEC3"
        },
        {
            "bufferView" : 4,
            "componentType" : 5126,
            "count" : 380,
            "type" : "VEC3"
        },
        {
            "bufferView" : 5,
            "componentType" : 5123,
            "count" : 1044,
            "type" : "SCALAR"
        },
        {
            "bufferView" : 6,
            "componentType" : 5126,
            "count" : 288,
            "max" : [
                1,
                1.000000238418579,
                1
            ],
            "min" : [
                -5.24306583404541,
                -1,
                -1
            ],
            "type" : "VEC3"
        },
        {
            "bufferView" : 7,
            "componentType" : 5126,
            "count" : 288,
            "type" : "VEC3"
        },
        {
            "bufferView" : 8,
            "componentType" : 5123,
            "count" : 1692,
            "type" : "SCALAR"
        },
        {
            "bufferView" : 9,
            "componentType" : 5126,
            "count" : 768,
            "max" : [
                101.40674591064453,
                4.5381879806518555,
                1.0681076049804688
            ],
            "min" : [
                -1,
                -1,
                -43.11499786376953
            ],
            "type" : "VEC3"
        },
        {
            "bufferView" : 10,
            "componentType" : 5126,
            "count" : 768,
            "type" : "VEC3"
        },
        {
            "bufferView" : 11,
            "componentType" : 5123,
            "count" : 1488,
            "type" : "SCALAR"
        }
    ],
    "bufferViews" : [
        {
            "buffer" : 0,
            "byteLength" : 2016,
            "byteOffset" : 0
        },
        {
            "buffer" : 0,
            "byteLength" : 2016,
            "byteOffset" : 2016
        },
        {
            "buffer" : 0,
            "byteLength" : 1944,
            "byteOffset" : 4032
        },
        {
            "buffer" : 0,
            "byteLength" : 4560,
            "byteOffset" : 5976
        },
        {
            "buffer" : 0,
            "byteLength" : 4560,
            "byteOffset" : 10536
        },
        {
            "buffer" : 0,
            "byteLength" : 2088,
            "byteOffset" : 15096
        },
        {
            "buffer" : 0,
            "byteLength" : 3456,
            "byteOffset" : 17184
        },
        {
            "buffer" : 0,
            "byteLength" : 3456,
            "byteOffset" : 20640
        },
        {
            "buffer" : 0,
            "byteLength" : 3384,
            "byteOffset" : 24096
        },
        {
            "buffer" : 0,
            "byteLength" : 9216,
            "byteOffset" : 27480
        },
        {
            "buffer" : 0,
            "byteLength" : 9216,
            "byteOffset" : 36696
        },
        {
            "buffer" : 0,
            "byteLength" : 2976,
            "byteOffset" : 45912
        }
    ],
    "buffers" : [
        {
            "byteLength" : 48888,
            "uri" : "data:application/octet-stream;base64,"
        }
    ]
}
