{
    "asset" : {
        "generator" : "Khronos glTF Blender I/O v1.1.16",
        "version" : "2.0"
    },
    "scene" : 0,
    "scenes" : [
        {
            "name" : "Scene",
            "nodes" : [
                0,
                1,
                2,
                3,
                4,
                5,
                6,
                7,
                9,
                10
            ]
        }
    ],
    "nodes" : [
        {
            "name" : "Cylinder",
            "scale" : [
                0.044450365006923676,
                0.044450365006923676,
                0.044450365006923676
            ],
            "translation" : [
                -0.7481853365898132,
                -0.35112646222114563,
                0.18795721232891083
            ]
        },
        {
            "name" : "Cylinder.001",
            "scale" : [
                0.044450365006923676,
                0.044450365006923676,
                0.044450365006923676
            ],
            "translation" : [
                -0.7481853365898132,
                -0.35112646222114563,
                0.18795721232891083
            ]
        },
        {
            "name" : "Cylinder.002",
            "scale" : [
                0.03646008297801018,
                0.06987961381673813,
                0.03646008297801018
            ],
            "translation" : [
                -0.762535035610199,
                -0.38573047518730164,
                0.17915190756320953
            ]
        },
        {
            "name" : "Cylinder.003",
            "scale" : [
                0.03646008297801018,
                0.06987961381673813,
                0.03646008297801018
            ],
            "translation" : [
                -0.762535035610199,
                -0.38573047518730164,
                0.17915190756320953
            ]
        },
        {
            "name" : "Cube.002",
            "scale" : [
                1,
                0.3799999952316284,
                0.4099999964237213
            ],
            "translation" : [
                -1.6502727270126343,
                -0.0811581090092659,
                -0.13071520626544952
            ]
        },
        {
            "name" : "Cube.004",
            "scale" : [
                1,
                0.3799999952316284,
                0.4099999964237213
            ],
            "translation" : [
                -1.6361055374145508,
                -0.0811581090092659,
                -0.13071520626544952
            ]
        },
        {
            "name" : "Cube.005",
            "scale" : [
                0.18508079648017883,
                0.18508079648017883,
                0.18508079648017883
            ],
            "translation" : [
                -1.1874366998672485,
                0.1854119747877121,
                -0.1373574435710907
            ]
        },
        {
            "name" : "Cube.007",
            "scale" : [
                0.18508079648017883,
                0.18508079648017883,
                0.18508079648017883
            ],
            "translation" : [
                -1.1874366998672485,
                0.1854119747877121,
                -0.1373574435710907
            ]
        },
        {
            "mesh" : 0,
            "name" : "Plane",
            "translation" : [
                -0.009337185882031918,
                2.5968527793884277,
                -0.16145923733711243
            ]
        },
        {
            "children" : [
                8
            ],
            "mesh" : 1,
            "name" : "Plane.002",
            "scale" : [
                0.15623559057712555,
                0.15623559057712555,
                0.15623559057712555
            ],
            "translation" : [
                5.030632019042969e-05,
                0.46022433042526245,
                -0.03680921718478203
            ]
        },
        {
            "mesh" : 2,
            "name" : "Plane.003",
            "scale" : [
                1.8944112062454224,
                1.8944112062454224,
                1.8944112062454224
            ],
            "translation" : [
                -0.0014083385467529297,
                0.4599534273147583,
                0.045899007469415665
            ]
        }
    ],
    "materials" : [
        {
            "doubleSided" : true,
            "emissiveFactor" : [
                0,
                0,
                0
            ],
            "name" : "Material.002",
            "pbrMetallicRoughness" : {
                "baseColorFactor" : [
                    0,
                    0,
                    0,
                    1
                ],
                "metallicFactor" : 0.10454545170068741,
                "roughnessFactor" : 0.4909090995788574
            }
        },
        {
            "doubleSided" : true,
            "emissiveFactor" : [
                0,
                0,
                0
            ],
            "name" : "Material.003",
            "pbrMetallicRoughness" : {
                "baseColorFactor" : [
                    0.5702710151672363,
                    0.5702710151672363,
                    0.5702710151672363,
                    1
                ],
                "metallicFactor" : 0.33181819319725037,
                "roughnessFactor" : 0.5
            }
        },
        {
            "doubleSided" : true,
            "emissiveFactor" : [
                0,
                0,
                0
            ],
            "name" : "Material.001",
            "pbrMetallicRoughness" : {
                "baseColorFactor" : [
                    0.012992920354008675,
                    0.0045801750384271145,
                    0,
                    1
                ],
                "metallicFactor" : 0,
                "roughnessFactor" : 0.7590909004211426
            }
        }
    ],
    "meshes" : [
        {
            "name" : "Plane.008",
            "primitives" : [
                {
                    "attributes" : {
                        "POSITION" : 0,
                        "NORMAL" : 1,
                        "TEXCOORD_0" : 2
                    },
                    "indices" : 3,
                    "material" : 0
                }
            ]
        },
        {
            "name" : "Plane.007",
            "primitives" : [
                {
                    "attributes" : {
                        "POSITION" : 4,
                        "NORMAL" : 5,
                        "TEXCOORD_0" : 6
                    },
                    "indices" : 7,
                    "material" : 1
                }
            ]
        },
        {
            "name" : "Plane.006",
            "primitives" : [
                {
                    "attributes" : {
                        "POSITION" : 8,
                        "NORMAL" : 9
                    },
                    "indices" : 10,
                    "material" : 2
                }
            ]
        }
    ],
    "accessors" : [
        {
            "bufferView" : 0,
            "componentType" : 5126,
            "count" : 2601,
            "max" : [
                4.609430313110352,
                3.052854061126709,
                0.005185247864574194
            ],
            "min" : [
                -4.586529731750488,
                -2.360847234725952,
                -0.26701730489730835
            ],
            "type" : "VEC3"
        },
        {
            "bufferView" : 1,
            "componentType" : 5126,
            "count" : 2601,
            "type" : "VEC3"
        },
        {
            "bufferView" : 2,
            "componentType" : 5126,
            "count" : 2601,
            "type" : "VEC2"
        },
        {
            "bufferView" : 3,
            "componentType" : 5123,
            "count" : 5604,
            "type" : "SCALAR"
        },
        {
            "bufferView" : 4,
            "componentType" : 5126,
            "count" : 1004,
            "max" : [
                4.551512718200684,
                1.251266360282898,
                0.4249972105026245
            ],
            "min" : [
                -4.547285079956055,
                -0.002569913864135742,
                -1.8131113052368164
            ],
            "type" : "VEC3"
        },
        {
            "bufferView" : 5,
            "componentType" : 5126,
            "count" : 1004,
            "type" : "VEC3"
        },
        {
            "bufferView" : 6,
            "componentType" : 5126,
            "count" : 1004,
            "type" : "VEC2"
        },
        {
            "bufferView" : 7,
            "componentType" : 5123,
            "count" : 4308,
            "type" : "SCALAR"
        },
        {
            "bufferView" : 8,
            "componentType" : 5126,
            "count" : 4475,
            "max" : [
                0.42806094884872437,
                0,
                0.16920912265777588
            ],
            "min" : [
                -0.42806094884872437,
                -0.24122659862041473,
                -0.21388612687587738
            ],
            "type" : "VEC3"
        },
        {
            "bufferView" : 9,
            "componentType" : 5126,
            "count" : 4475,
            "type" : "VEC3"
        },
        {
            "bufferView" : 10,
            "componentType" : 5123,
            "count" : 23049,
            "type" : "SCALAR"
        }
    ],
    "bufferViews" : [
        {
            "buffer" : 0,
            "byteLength" : 31212,
            "byteOffset" : 0
        },
        {
            "buffer" : 0,
            "byteLength" : 31212,
            "byteOffset" : 31212
        },
        {
            "buffer" : 0,
            "byteLength" : 20808,
            "byteOffset" : 62424
        },
        {
            "buffer" : 0,
            "byteLength" : 11208,
            "byteOffset" : 83232
        },
        {
            "buffer" : 0,
            "byteLength" : 12048,
            "byteOffset" : 94440
        },
        {
            "buffer" : 0,
            "byteLength" : 12048,
            "byteOffset" : 106488
        },
        {
            "buffer" : 0,
            "byteLength" : 8032,
            "byteOffset" : 118536
        },
        {
            "buffer" : 0,
            "byteLength" : 8616,
            "byteOffset" : 126568
        },
        {
            "buffer" : 0,
            "byteLength" : 53700,
            "byteOffset" : 135184
        },
        {
            "buffer" : 0,
            "byteLength" : 53700,
            "byteOffset" : 188884
        },
        {
            "buffer" : 0,
            "byteLength" : 46098,
            "byteOffset" : 242584
        }
    ],
    "buffers" : [
        {
            "byteLength" : 288684,
            "uri" : "data:application/octet-stream;base64,"
        }
    ]
}
